<mxfile host="app.diagrams.net" agent="Mozilla/5.0 (Windows NT 10.0; Win64; x64) AppleWebKit/537.36 (KHTML, like Gecko) Chrome/131.0.0.0 Safari/537.36" version="24.9.1">
  <diagram name="Page-1" id="VyakKw2K6xc7t4sX2SmE">
    <mxGraphModel dx="1259" dy="686" grid="1" gridSize="10" guides="1" tooltips="1" connect="1" arrows="1" fold="1" page="1" pageScale="1" pageWidth="850" pageHeight="1100" math="0" shadow="0">
      <root>
        <mxCell id="0" />
        <mxCell id="1" parent="0" />
        <mxCell id="4eGCGUK9_rD5kXIE3Q39-3" style="edgeStyle=orthogonalEdgeStyle;rounded=0;orthogonalLoop=1;jettySize=auto;html=1;entryX=0.5;entryY=1;entryDx=0;entryDy=0;" edge="1" parent="1" source="4eGCGUK9_rD5kXIE3Q39-1" target="4eGCGUK9_rD5kXIE3Q39-2">
          <mxGeometry relative="1" as="geometry" />
        </mxCell>
        <mxCell id="4eGCGUK9_rD5kXIE3Q39-1" value="&lt;b&gt;Jenkinsfile&lt;/b&gt;" style="rounded=0;whiteSpace=wrap;html=1;fillColor=#dae8fc;strokeColor=#6c8ebf;" vertex="1" parent="1">
          <mxGeometry x="10" y="220" width="200" height="120" as="geometry" />
        </mxCell>
        <mxCell id="4eGCGUK9_rD5kXIE3Q39-2" value="&lt;b&gt;jenkins-shared-library&lt;/b&gt;" style="rounded=1;whiteSpace=wrap;html=1;fillColor=#d5e8d4;strokeColor=#82b366;" vertex="1" parent="1">
          <mxGeometry x="340" y="60" width="250" height="90" as="geometry" />
        </mxCell>
        <mxCell id="4eGCGUK9_rD5kXIE3Q39-4" value="&lt;b&gt;input&lt;/b&gt;" style="text;html=1;align=center;verticalAlign=middle;resizable=0;points=[];autosize=1;strokeColor=none;fillColor=none;" vertex="1" parent="1">
          <mxGeometry x="315" y="290" width="50" height="30" as="geometry" />
        </mxCell>
        <mxCell id="4eGCGUK9_rD5kXIE3Q39-5" style="edgeStyle=orthogonalEdgeStyle;rounded=0;orthogonalLoop=1;jettySize=auto;html=1;entryX=0.8;entryY=0.167;entryDx=0;entryDy=0;entryPerimeter=0;" edge="1" parent="1" source="4eGCGUK9_rD5kXIE3Q39-2" target="4eGCGUK9_rD5kXIE3Q39-1">
          <mxGeometry relative="1" as="geometry" />
        </mxCell>
      </root>
    </mxGraphModel>
  </diagram>
</mxfile>
